# ProBuilder 6.0.8
# https://unity3d.com/unity/features/worldbuilding/probuilder
# 2026-08-16 5:25:12 PM

mtllib ./Plane.mtl
o Plane

g Plane
v 7.500001 0 -6
v 0 0 -6
v 7.500001 0 0
v 7.500001 0 6
v -7.500001 0 -6
v 0 0 0
v 0 0 6
v -7.500001 0 0
v -7.500001 0 6

vt -7.500001 -6
vt 0 -6
vt -7.500001 0
vt -7.500001 6
vt 7.500001 -6
vt 0 0
vt 0 6
vt 7.500001 0
vt 7.500001 6

vn 0 1 0

usemtl ProBuilderDefault
f 8/8/1 7/7/1 6/6/1
f 8/8/1 9/9/1 7/7/1
f 6/6/1 4/4/1 3/3/1
f 6/6/1 7/7/1 4/4/1
f 2/2/1 3/3/1 1/1/1
f 2/2/1 6/6/1 3/3/1
f 5/5/1 6/6/1 2/2/1
f 5/5/1 8/8/1 6/6/1

